<svg width="16" height="16" viewBox="0 0 16 16" fill="none" xmlns="http://www.w3.org/2000/svg">
<rect width="16" height="16" fill="white" fill-opacity="0.01"/>
<rect width="14" height="14" transform="translate(1 1)" fill="white" fill-opacity="0.01"/>
<g clip-path="url(#clip0_52_13448)">
<path d="M10.497 7.25177C10.5377 7.29241 10.5701 7.34069 10.5921 7.39384C10.6142 7.447 10.6255 7.50398 10.6255 7.56152C10.6255 7.61907 10.6142 7.67605 10.5921 7.7292C10.5701 7.78235 10.5377 7.83063 10.497 7.87127L7.87201 10.4963C7.83137 10.537 7.78309 10.5693 7.72994 10.5914C7.67678 10.6135 7.6198 10.6248 7.56226 10.6248C7.50471 10.6248 7.44773 10.6135 7.39458 10.5914C7.34142 10.5693 7.29315 10.537 7.25251 10.4963L5.94001 9.18377C5.89933 9.1431 5.86706 9.09481 5.84505 9.04166C5.82303 8.98851 5.8117 8.93155 5.8117 8.87402C5.8117 8.8165 5.82303 8.75953 5.84505 8.70639C5.86706 8.65324 5.89933 8.60495 5.94001 8.56427C6.02216 8.48212 6.13358 8.43597 6.24976 8.43597C6.30728 8.43597 6.36424 8.4473 6.41739 8.46932C6.47054 8.49133 6.51883 8.5236 6.55951 8.56427L7.56226 9.5679L9.87751 7.25177C9.91815 7.21103 9.96642 7.17871 10.0196 7.15665C10.0727 7.13459 10.1297 7.12324 10.1873 7.12324C10.2448 7.12324 10.3018 7.13459 10.3549 7.15665C10.4081 7.17871 10.4564 7.21103 10.497 7.25177Z" fill="#6C757D"/>
<path d="M4.06226 0.999023C4.17829 0.999023 4.28957 1.04512 4.37161 1.12716C4.45366 1.20921 4.49976 1.32049 4.49976 1.43652V1.87402H11.4998V1.43652C11.4998 1.32049 11.5458 1.20921 11.6279 1.12716C11.7099 1.04512 11.8212 0.999023 11.9373 0.999023C12.0533 0.999023 12.1646 1.04512 12.2466 1.12716C12.3287 1.20921 12.3748 1.32049 12.3748 1.43652V1.87402H13.2498C13.7139 1.87402 14.159 2.0584 14.4872 2.38659C14.8154 2.71478 14.9998 3.15989 14.9998 3.62402V13.249C14.9998 13.7132 14.8154 14.1583 14.4872 14.4865C14.159 14.8146 13.7139 14.999 13.2498 14.999H2.74976C2.28563 14.999 1.84051 14.8146 1.51232 14.4865C1.18413 14.1583 0.999756 13.7132 0.999756 13.249V3.62402C0.999756 3.15989 1.18413 2.71478 1.51232 2.38659C1.84051 2.0584 2.28563 1.87402 2.74976 1.87402H3.62476V1.43652C3.62476 1.32049 3.67085 1.20921 3.7529 1.12716C3.83494 1.04512 3.94622 0.999023 4.06226 0.999023ZM1.87476 4.49902V13.249C1.87476 13.4811 1.96694 13.7036 2.13104 13.8677C2.29513 14.0318 2.51769 14.124 2.74976 14.124H13.2498C13.4818 14.124 13.7044 14.0318 13.8685 13.8677C14.0326 13.7036 14.1248 13.4811 14.1248 13.249V4.49902H1.87476Z" fill="#6C757D"/>
</g>
<defs>
<clipPath id="clip0_52_13448">
<rect width="14" height="14" fill="white" transform="translate(1 1)"/>
</clipPath>
</defs>
</svg>
