<svg width="24" height="24" viewBox="0 0 24 24" fill="none" xmlns="http://www.w3.org/2000/svg">
<rect width="24" height="24" rx="12" fill="#D6F4E9"/>
<path d="M6 10.6668H18H6ZM8.66667 14.0002H9.33333H8.66667ZM12 14.0002H12.6667H12ZM8 16.6668H16C16.5304 16.6668 17.0391 16.4561 17.4142 16.081C17.7893 15.706 18 15.1973 18 14.6668V9.3335C18 8.80306 17.7893 8.29436 17.4142 7.91928C17.0391 7.54421 16.5304 7.3335 16 7.3335H8C7.46957 7.3335 6.96086 7.54421 6.58579 7.91928C6.21071 8.29436 6 8.80306 6 9.3335V14.6668C6 15.1973 6.21071 15.706 6.58579 16.081C6.96086 16.4561 7.46957 16.6668 8 16.6668Z" stroke="#166749" stroke-width="1.33333" stroke-linecap="round" stroke-linejoin="round"/>
</svg>
